<svg xmlns="http://www.w3.org/2000/svg" xmlns:xlink="http://www.w3.org/1999/xlink" viewBox="0 0 413.44 431.71"><defs><style>.cls-1{fill:none;}.cls-2{clip-path:url(#clip-path);}.cls-3{fill:#d3056c;}.cls-4{fill:#ff0177;}.cls-5,.cls-6{fill:#fff;}.cls-6{opacity:0.25;}.cls-7{fill:#feb6ce;}.cls-8{fill:#f4f4f4;}</style><clipPath id="clip-path" transform="translate(9.48 13.04)"><path class="cls-1" d="M319.19,409.17H79.67c-37.39,0-67.7-33.08-67.7-73.89L0,73.89C0,33.08,32.25,0,72,0h254.8c39.79,0,72,33.08,72,73.89l-12,261.39C386.9,376.09,356.58,409.17,319.19,409.17Z"/></clipPath></defs><g id="レイヤー_2" data-name="レイヤー 2"><g id="レイヤー_1-2" data-name="レイヤー 1"><g class="cls-2"><path class="cls-3" d="M319.19,409.17H79.67c-37.39,0-67.7-33.08-67.7-73.89L0,73.89C0,33.08,32.25,0,72,0h254.8c39.79,0,72,33.08,72,73.89l-12,261.39C386.9,376.09,356.58,409.17,319.19,409.17Z" transform="translate(9.48 13.04)"/><path class="cls-4" d="M312.06,394.48H77.9c-36.56,0-66.2-31.9-66.2-71.24L0,71.24C0,31.89,31.53,0,70.42,0H319.54C358.43,0,390,31.89,390,71.24l-11.7,252C378.26,362.58,348.62,394.48,312.06,394.48Z" transform="translate(9.48 13.04)"/><path class="cls-5" d="M300.71,311.17c-26.79,2.58-76.28-1.49-103.13-3.35-34.45-2.38-69,2.16-103.5,2-36.85-.19-50.86-22.9-56.12-36.46-4.11-10.57-6.86-27.54-5.07-43.86,1.31-12,2.89-18.13,2.24-30-1-17.54-5.31-35.43-10.14-56.3-7.31-31.62,2.34-71.9,28.65-90.34s60.42-22.48,92.19-18.2c15.2,2,30.2,5.86,45.52,6.4,22.53.8,44.61-5.47,66.75-9.73,23.95-4.61,39.31-4.87,62.63,2.36S365.21,59.22,370,83.36c6.1,30.61-4.6,58.34-5.82,89.53-1,26.49,4.78,64.8-4.08,89.74C351.43,287.07,327.5,308.6,300.71,311.17Z" transform="translate(9.48 13.04)"/><circle class="cls-6" cx="75.69" cy="347.41" r="10.69"/><circle class="cls-6" cx="59.66" cy="398.17" r="10.69"/><circle class="cls-6" cx="10.69" cy="291.31" r="10.69"/><circle class="cls-6" cx="289.4" cy="41.09" r="10.69"/><circle class="cls-6" cx="146.04" cy="376.8" r="10.69"/><circle class="cls-6" cx="195.01" cy="312.69" r="10.69"/><circle class="cls-6" cx="167.41" cy="100.76" r="10.69"/><circle class="cls-6" cx="65" cy="62.47" r="10.69"/><circle class="cls-6" cx="10.69" cy="62.47" r="10.69"/><circle class="cls-6" cx="278.72" cy="387.48" r="10.69"/><circle class="cls-6" cx="278.72" cy="344.74" r="10.69"/><circle class="cls-6" cx="359.75" cy="312.69" r="10.69"/><circle class="cls-6" cx="400.71" cy="190.69" r="10.69"/><circle class="cls-6" cx="398.04" cy="358.1" r="10.69"/><circle class="cls-6" cx="294.74" cy="220.97" r="10.69"/><circle class="cls-6" cx="228.85" cy="20.61" r="10.69"/><circle class="cls-6" cx="370.43" cy="73.15" r="10.69"/><circle class="cls-6" cx="359.75" cy="158.64" r="10.69"/><circle class="cls-6" cx="81.03" cy="180.01" r="10.69"/><polygon class="cls-6" points="145.54 328.18 145.54 341 134.44 334.59 123.33 328.18 134.44 321.77 145.54 315.36 145.54 328.18"/><polygon class="cls-6" points="75.69 294.34 75.69 307.17 64.58 300.75 53.48 294.34 64.58 287.93 75.69 281.52 75.69 294.34"/><polygon class="cls-6" points="32.06 180.36 32.06 193.19 20.95 186.78 9.85 180.36 20.95 173.95 32.06 167.54 32.06 180.36"/><polygon class="cls-6" points="108.64 111.8 108.64 124.62 97.53 118.21 86.43 111.8 97.53 105.39 108.64 98.97 108.64 111.8"/><polygon class="cls-6" points="140.85 41.05 130 47.89 129.51 35.08 129.01 22.26 140.35 28.24 151.7 34.21 140.85 41.05"/><polygon class="cls-6" points="75.85 18.79 65 25.63 64.5 12.81 64 0 75.35 5.97 86.7 11.95 75.85 18.79"/><polygon class="cls-6" points="333.19 105.16 322.35 112 321.85 99.19 321.35 86.38 332.69 92.35 344.04 98.33 333.19 105.16"/><polygon class="cls-6" points="375.05 28.58 364.2 35.42 363.7 22.61 363.2 9.79 374.55 15.77 385.89 21.75 375.05 28.58"/><polygon class="cls-6" points="228.85 398.53 228.85 411.35 217.74 404.94 206.64 398.53 217.74 392.12 228.85 385.7 228.85 398.53"/><polygon class="cls-6" points="338.13 377.31 330.75 387.8 325.36 376.17 319.97 364.53 332.74 365.68 345.51 366.83 338.13 377.31"/><polygon class="cls-6" points="299.84 302.52 292.46 313 287.07 301.37 281.68 289.73 294.45 290.88 307.22 292.03 299.84 302.52"/><polygon class="cls-6" points="221.48 356.83 214.1 367.32 208.71 355.69 203.32 344.05 216.09 345.2 228.86 346.35 221.48 356.83"/><polygon class="cls-6" points="395.93 260.49 392.87 272.94 383.62 264.06 374.37 255.18 386.69 251.61 399 248.04 395.93 260.49"/><polygon class="cls-6" points="405.33 127.04 413.44 136.97 400.78 139.03 388.12 141.08 392.67 129.09 397.22 117.1 405.33 127.04"/></g><path class="cls-7" d="M176.21,416.94l-12-12.46L147,406.29a5.65,5.65,0,0,1-5.9-7.55l22-60.41a5.65,5.65,0,0,1,7.24-3.38l17,6.17,16.95,6.17a5.66,5.66,0,0,1,3.38,7.25l-22,60.41A5.65,5.65,0,0,1,176.21,416.94Z" transform="translate(9.48 13.04)"/><path class="cls-7" d="M217.77,415.4l12-12.46L247,404.75a5.66,5.66,0,0,0,5.91-7.55l-22-60.41a5.66,5.66,0,0,0-7.25-3.38l-16.95,6.17-17,6.17a5.65,5.65,0,0,0-3.37,7.25l22,60.41A5.66,5.66,0,0,0,217.77,415.4Z" transform="translate(9.48 13.04)"/><path class="cls-8" d="M267.55,313c0,6.09-5.34,11.39-6.84,17-1.56,5.81.38,13.06-2.57,18.15s-10.26,7.1-14.45,11.29-6.13,11.47-11.29,14.45-12.34,1-18.15,2.57c-5.62,1.5-10.92,6.84-17,6.84s-11.4-5.34-17-6.84c-5.81-1.56-13.07.37-18.16-2.57s-7.1-10.26-11.28-14.45-11.47-6.13-14.46-11.29-1-12.34-2.56-18.15c-1.5-5.62-6.85-10.92-6.85-17s5.35-11.4,6.85-17c1.55-5.81-.38-13.07,2.56-18.16s10.27-7.1,14.46-11.28,6.12-11.47,11.28-14.46,12.35-1,18.16-2.56c5.61-1.5,10.92-6.85,17-6.85s11.39,5.35,17,6.85c5.81,1.55,13.06-.38,18.15,2.56s7.1,10.27,11.29,14.46,11.47,6.12,14.45,11.28,1,12.35,2.57,18.16C262.21,301.57,267.55,306.88,267.55,313Z" transform="translate(9.48 13.04)"/><circle class="cls-7" cx="206.72" cy="326.01" r="57.41"/><circle class="cls-4" cx="206.72" cy="326.01" r="47.97"/><rect class="cls-7" x="181.77" y="301.26" width="50.09" height="10.4" rx="4.52"/><rect class="cls-7" x="194.39" y="348.26" width="25.04" height="10.4" rx="4.52"/><rect class="cls-7" x="189.77" y="351.73" width="33.91" height="7.32" rx="3.18"/><rect class="cls-7" x="179.65" y="316.7" width="35.18" height="10.4" rx="4.52" transform="translate(528.62 137.71) rotate(90)"/><path class="cls-7" d="M192.14,301.26h29.35a4,4,0,0,1,4,4v22.15a16.22,16.22,0,0,1-16.22,16.22h-4.93a16.22,16.22,0,0,1-16.22-16.22V305.27a4,4,0,0,1,4-4Z"/><path class="cls-7" d="M180.29,319.42a11.18,11.18,0,1,1,0-22.35v6.17a5,5,0,1,0,0,10Z" transform="translate(9.48 13.04)"/><path class="cls-7" d="M214.19,319.42v-6.16a5,5,0,1,0,0-10v-6.17a11.18,11.18,0,0,1,0,22.35Z" transform="translate(9.48 13.04)"/><path class="cls-4" d="M198.53,301.71l1.58,3.19a1.39,1.39,0,0,0,1,.77l3.53.51a1.4,1.4,0,0,1,.77,2.4l-2.55,2.48a1.4,1.4,0,0,0-.4,1.24l.6,3.51a1.4,1.4,0,0,1-2,1.48l-3.15-1.65a1.36,1.36,0,0,0-1.3,0l-3.15,1.65a1.4,1.4,0,0,1-2-1.48l.6-3.51a1.4,1.4,0,0,0-.4-1.24l-2.55-2.48a1.4,1.4,0,0,1,.78-2.4l3.52-.51a1.41,1.41,0,0,0,1.06-.77l1.57-3.19A1.41,1.41,0,0,1,198.53,301.71Z" transform="translate(9.48 13.04)"/></g></g></svg>