<svg xmlns="http://www.w3.org/2000/svg" xmlns:xlink="http://www.w3.org/1999/xlink" viewBox="0 0 402.86 413.17"><defs><style>.cls-1{fill:none;}.cls-2{clip-path:url(#clip-path);}.cls-3{fill:#d3056c;}.cls-4{fill:#f4f4f4;stroke:#ff0177;stroke-miterlimit:10;stroke-width:8px;}.cls-5{fill:#fff;}</style><clipPath id="clip-path" transform="translate(4 4)"><path class="cls-1" d="M319.19,409.17H79.67c-37.39,0-67.7-33.08-67.7-73.89L0,73.89C0,33.08,32.25,0,72,0h254.8c39.79,0,72,33.08,72,73.89l-12,261.39C386.9,376.09,356.58,409.17,319.19,409.17Z"/></clipPath></defs><g id="レイヤー_2" data-name="レイヤー 2"><g id="レイヤー_1-2" data-name="レイヤー 1"><g class="cls-2"><path class="cls-3" d="M319.19,409.17H79.67c-37.39,0-67.7-33.08-67.7-73.89L0,73.89C0,33.08,32.25,0,72,0h254.8c39.79,0,72,33.08,72,73.89l-12,261.39C386.9,376.09,356.58,409.17,319.19,409.17Z" transform="translate(4 4)"/><path class="cls-4" d="M312.06,394.48H77.9c-36.56,0-66.2-31.9-66.2-71.24L0,71.24C0,31.89,31.53,0,70.42,0H319.54C358.43,0,390,31.89,390,71.24l-11.7,252C378.26,362.58,348.62,394.48,312.06,394.48Z" transform="translate(4 4)"/><path class="cls-5" d="M300.71,311.17c-26.79,2.58-76.28-1.49-103.13-3.35-34.45-2.38-69,2.16-103.5,2-36.85-.19-50.86-22.9-56.12-36.46-4.11-10.57-6.86-27.54-5.07-43.86,1.31-12,2.89-18.13,2.24-30-1-17.54-5.31-35.43-10.14-56.3-7.31-31.62,2.34-71.9,28.65-90.34s60.42-22.48,92.19-18.2c15.2,2,30.2,5.86,45.52,6.4,22.53.8,44.61-5.47,66.75-9.73,23.95-4.61,39.31-4.87,62.63,2.36S365.21,59.22,370,83.36c6.1,30.61-4.6,58.34-5.82,89.53-1,26.49,4.78,64.8-4.08,89.74C351.43,287.07,327.5,308.6,300.71,311.17Z" transform="translate(4 4)"/></g></g></g></svg>